<svg width="80" height="80" viewBox="0 0 80 80" fill="none" xmlns="http://www.w3.org/2000/svg">
<g opacity="0.9" clip-path="url(#clip0_366_175)">
<path d="M19.105 0.33864C17.1568 0.881689 15.7652 1.59851 14.2666 2.83667C12.7894 4.0531 11.0553 6.61629 10.413 8.57126C9.92064 10.0266 9.92064 10.0484 9.85642 25.8185L9.79219 41.5887L6.4096 41.6755C3.13405 41.7407 3.0056 41.7624 2.14925 42.3489C-0.398397 44.0432 -0.740937 47.5188 1.44276 49.5172C1.89234 49.9299 2.59883 50.386 3.02701 50.5164L3.77632 50.777L3.88336 55.5993C3.969 60.5737 4.07604 61.2905 5.10366 64.0492C6.02424 66.5255 9.04288 70.4354 10.9269 71.565C11.4835 71.8908 11.4835 71.956 11.5691 74.454C11.6333 76.8868 11.6548 77.0389 12.2756 77.9512C14.8447 81.644 20.518 79.8845 20.518 75.3663V74.6495L39.529 74.6929L58.5186 74.7581L58.5828 75.4098C58.7113 76.9737 58.904 77.4733 59.7175 78.4291C61.4302 80.4058 64.1063 80.5361 66.0545 78.7115C67.1678 77.6688 67.6173 76.3438 67.6173 74.1064V72.5425L68.8591 71.717C71.2354 70.1096 73.2907 67.6333 74.5752 64.8094C75.8383 62.0073 76.0096 61.1167 76.1166 55.7297L76.2237 50.8205L76.973 50.5598C77.4012 50.4078 78.1077 49.9299 78.5572 49.5172C80.7409 47.5188 80.3984 44.065 77.8507 42.3489L76.973 41.7407L71.8777 41.6755L66.8038 41.6104L66.6968 40.6329C66.5683 39.3296 65.712 38.0914 64.5773 37.5266C63.6781 37.0922 63.3142 37.0705 57.8549 37.0705C52.6954 37.0705 52.0103 37.1139 51.2182 37.4832C49.9979 38.048 49.163 39.221 49.0345 40.546L48.9275 41.6321H30.8799H12.8108V26.6439C12.8108 16.4781 12.8965 11.3082 13.0463 10.5262C14.4379 3.79243 22.1451 0.773079 27.5829 4.81336C28.5891 5.57363 30.152 7.35483 30.152 7.76755C30.152 7.87616 29.7666 8.15855 29.2742 8.39749C27.2618 9.46187 25.4848 12.0468 25.0138 14.6534C24.5857 17.108 25.2279 19.2585 26.4054 19.2585C27.2832 19.2585 41.1561 15.9785 41.6485 15.6526C42.3336 15.2182 42.462 14.4362 42.0552 13.2632C40.9634 10.0049 38.2445 7.74583 34.7763 7.24622C33.2562 7.02901 33.1706 6.98556 32.7424 6.22529C31.3508 3.70554 28.6105 1.42474 25.913 0.55586C23.8578 -0.0957992 21.0532 -0.182687 19.105 0.33864ZM36.3391 10.8955C37.3025 11.3734 38.7155 12.7419 38.7155 13.1763C38.7155 13.4153 38.3943 13.5022 32.5711 14.8272C30.0663 15.392 27.9683 15.8047 27.904 15.7612C27.6899 15.5223 28.4607 13.437 29.0601 12.5681C29.7452 11.6341 31.2224 10.6349 32.3571 10.3307C33.4275 10.0484 35.2258 10.309 36.3391 10.8955ZM63.5069 40.3722C63.6995 40.5677 63.7638 42.501 63.7638 47.7577V54.8825H57.8763H51.9889V47.7577C51.9889 42.501 52.0531 40.5677 52.2458 40.3722C52.6098 40.003 63.1429 40.003 63.5069 40.3722ZM48.9917 46.1937V47.7142H26.4054C4.09745 47.7142 3.81914 47.7142 3.39096 47.2798C2.81292 46.6933 2.85574 45.8462 3.498 45.2162L4.01181 44.6732H26.5125H48.9917V46.1937ZM76.502 45.2162C77.1443 45.8462 77.1871 46.6933 76.609 47.2798C76.2023 47.6925 75.9025 47.7142 71.4709 47.7142H66.761V46.1937V44.6732H71.3639C75.9882 44.6732 75.9882 44.6732 76.502 45.2162ZM48.9917 56.1858C49.0559 59.7699 49.1844 61.6597 49.3556 61.9639C49.7196 62.6155 51.0469 63.7668 51.625 63.8971C51.8819 63.9623 54.8577 64.0057 58.2189 63.9623L64.3418 63.8971L65.1339 63.2672C66.6325 62.1159 66.761 61.5294 66.761 55.7948V50.7553H69.9937H73.2264L73.1408 55.469C73.0552 59.9003 73.0124 60.313 72.4557 61.9856C71.3425 65.4611 68.8805 68.3936 65.6477 70.0661C62.5435 71.6736 63.4854 71.6301 39.3577 71.565L17.8419 71.4998L16.4503 71.0219C12.2542 69.5665 9.0857 66.3517 7.58708 62.0725C6.96623 60.2478 6.94482 60.074 6.85918 55.469L6.77355 50.7553L27.8184 50.7988L48.8846 50.8639L48.9917 56.1858ZM63.7638 59.2052C63.7638 60.0089 63.6567 60.5736 63.464 60.7257C63.2714 60.8995 61.5372 60.9646 57.6408 60.9212L52.096 60.856L52.0317 59.3789L51.9675 57.9236H57.8763H63.7638V59.2052ZM16.3433 74.1282C17.4779 74.454 17.5208 74.4974 17.5208 75.2143C17.5208 75.7356 17.3495 76.1483 16.9855 76.4958C16.3433 77.1475 15.8295 77.1692 15.0802 76.5827C14.5878 76.1917 14.5235 75.9745 14.5235 74.8233C14.5235 73.7372 14.5878 73.5417 14.8447 73.6503C15.0373 73.7154 15.701 73.9327 16.3433 74.1282ZM64.6201 74.7581C64.6201 76.3438 63.5283 77.3865 62.4364 76.8C61.7727 76.4524 61.6229 76.1917 61.6229 75.2794C61.6229 74.5192 61.6443 74.4974 62.7575 74.2802C64.6201 73.9109 64.6201 73.9109 64.6201 74.7581Z" fill="#020826"/>
</g>
<defs>
<clipPath id="clip0_366_175">
<rect width="80" height="80" fill="white"/>
</clipPath>
</defs>
</svg>
