<svg width="72" height="88" viewBox="0 0 72 88" fill="none" xmlns="http://www.w3.org/2000/svg">
<g opacity="0.9">
<path d="M2.8007 0.200945C1.77479 0.562045 0.946864 1.24986 0.496904 2.14401L0.0649427 2.96938L0.0109475 39.5093C-0.0250493 65.4398 0.0289459 76.2728 0.154935 76.8231C0.442909 77.9236 1.09085 78.8005 2.08076 79.3508C2.8187 79.7635 3.16067 79.8322 4.69053 79.8838L6.45437 79.9526V83.5636C6.45437 87.1402 6.45437 87.1574 6.90433 87.5701L7.33629 88H12.0339C16.6595 88 16.7315 88 17.1274 87.6217C17.3434 87.3982 18.2613 85.5755 19.1432 83.5808L20.7631 79.9182H35.9717H51.1804L52.8002 83.5636C53.6821 85.5755 54.6001 87.3982 54.816 87.6045C55.212 88 55.284 88 59.9096 88H64.6072L65.0391 87.5701C65.4891 87.1574 65.4891 87.1402 65.4891 83.5636V79.9526L67.2529 79.8838C68.7648 79.8322 69.1248 79.7635 69.8447 79.3508C70.8346 78.8005 71.3746 78.1299 71.7165 77.0466C72.0945 75.8601 72.0945 4.01829 71.7165 2.83182C71.3746 1.74852 70.8346 1.0779 69.8447 0.527655L68.9988 0.0461872L36.2417 0.0117966C9.19013 -0.0225939 3.35865 0.0117966 2.8007 0.200945ZM68.5668 2.5395C69.5027 3.02097 69.4487 0.83717 69.4487 39.9392C69.4487 79.5571 69.5207 76.9606 68.4408 77.3389C67.8289 77.5625 4.11458 77.5625 3.50263 77.3389C2.42273 76.9606 2.49472 79.6087 2.53072 39.6641L2.58472 3.19292L3.08867 2.78024L3.59263 2.36755H35.8997C57.7138 2.36755 68.3328 2.41913 68.5668 2.5395ZM17.9553 80.0386C17.9553 80.1246 17.3974 81.3798 16.7315 82.8414L15.5256 85.5067L12.2499 85.5583L8.97414 85.5927V82.7554V79.9182H13.4737C15.9575 79.9182 17.9733 79.9698 17.9553 80.0386ZM62.9693 82.7554V85.5927L59.6936 85.5583L56.4179 85.5067L55.212 82.8414C54.5461 81.3798 53.9881 80.1246 53.9881 80.0386C53.9701 79.9698 56.0039 79.9182 58.4697 79.9182H62.9693V82.7554Z" fill="#020826"/>
<path d="M7.62428 7.26809L7.17432 7.68078V16.1752C7.17432 24.5149 7.17432 24.6869 7.55228 25.134L7.91225 25.5811H35.9717H64.0312L64.3912 25.134C64.7692 24.6869 64.7692 24.5149 64.7692 16.1752V7.68078L64.3192 7.26809L63.8872 6.83821H35.9717H8.05624L7.62428 7.26809ZM62.2494 16.2096V23.1737H35.9717H9.69409V16.2096V9.24555H35.9717H62.2494V16.2096Z" fill="#020826"/>
<path d="M27.6025 14.3181C26.8106 15.0575 27.0446 15.6249 28.6284 16.7254L29.7083 17.4992H35.9538C42.9371 17.4992 42.5052 17.568 44.035 16.1752C44.899 15.3842 44.989 14.9199 44.341 14.3181C43.7471 13.7334 43.1891 13.785 42.2532 14.49L41.4613 15.0919H35.9718H30.4823L29.6903 14.49C28.7544 13.785 28.1965 13.7334 27.6025 14.3181Z" fill="#020826"/>
<path d="M7.55228 31.0148C7.17432 31.4619 7.17432 31.6338 7.17432 39.9391C7.17432 48.2444 7.17432 48.4164 7.55228 48.8635L7.91225 49.3105H35.9717H64.0312L64.3912 48.8635C64.7692 48.4164 64.7692 48.2444 64.7692 39.9391C64.7692 31.6338 64.7692 31.4619 64.3912 31.0148L64.0312 30.5677H35.9717H7.91225L7.55228 31.0148ZM62.2494 39.9391V46.9032H35.9717H9.69409V39.9391V32.975H35.9717H62.2494V39.9391Z" fill="#020826"/>
<path d="M27.5303 38.0649C26.8644 38.8731 27.0443 39.2342 28.6102 40.4379L29.4381 41.0569H35.9895H42.541L43.5849 40.2659C44.7728 39.3546 45.0067 38.8387 44.4848 38.1681C43.9628 37.4975 43.2789 37.4803 42.361 38.1165L41.587 38.6495H35.9355L30.302 38.6324L29.6001 38.1337C28.7002 37.4803 28.0162 37.4631 27.5303 38.0649Z" fill="#020826"/>
<path d="M7.78626 54.4348C7.21031 54.7959 7.17432 55.3289 7.17432 63.7546V72.1975L7.62428 72.6102L8.05624 73.04H35.9717H63.8872L64.3192 72.6102L64.7692 72.1975V63.7546C64.7692 55.3289 64.7332 54.7959 64.1572 54.4348C63.9052 54.2628 8.03824 54.2628 7.78626 54.4348ZM62.2494 63.6686V70.6327H35.9717H9.69409V63.6686V56.7045H35.9717H62.2494V63.6686Z" fill="#020826"/>
<path d="M27.7643 61.4849C27.3863 61.7084 27.1343 62.3618 27.2603 62.8089C27.3323 63.0497 27.8183 63.5483 28.4662 64.0126L29.5641 64.7864H35.9895H42.415L43.4949 64.0126C44.1248 63.5483 44.6108 63.0669 44.6828 62.8089C44.8087 62.379 44.5568 61.7084 44.1788 61.4849C43.7468 61.1926 42.9369 61.3645 42.271 61.8632L41.587 62.379H35.9715H30.356L29.6721 61.8632C29.0062 61.3645 28.1962 61.1926 27.7643 61.4849Z" fill="#020826"/>
</g>
</svg>
