<svg width="80" height="80" viewBox="0 0 80 80" fill="none" xmlns="http://www.w3.org/2000/svg">
<g opacity="0.9" clip-path="url(#clip0_366_173)">
<path d="M19.52 56.2049C19.5889 56.5845 19.5549 56.9779 19.4222 57.3366C19.3333 57.5707 19.2 57.7854 19.0311 57.961C18.7022 58.3317 18.2489 58.5366 17.7778 58.5366C17.2978 58.5366 16.8533 58.3317 16.5244 57.961C16.3157 57.7365 16.1615 57.4581 16.0761 57.1513C15.9907 56.8445 15.9767 56.5191 16.0356 56.2049C16.0533 56.0781 16.0889 55.9512 16.1333 55.8342C16.1778 55.7171 16.24 55.6098 16.3022 55.5024C16.3644 55.3951 16.4356 55.2976 16.5244 55.2098C17.1822 54.478 18.3733 54.478 19.0311 55.2098C19.12 55.2976 19.1911 55.3951 19.2533 55.5024C19.3156 55.6098 19.3778 55.7171 19.4222 55.8342C19.4667 55.9512 19.5022 56.0781 19.52 56.2049ZM80 48.7805V78.0488C80 79.122 79.2 80 78.2222 80H1.77778C0.8 80 0 79.122 0 78.0488V48.7805C0 47.7073 0.8 46.8293 1.77778 46.8293H16V42.9268C16 41.8537 16.8 40.9756 17.7778 40.9756C18.7556 40.9756 19.5556 41.8537 19.5556 42.9268V46.8293H23.1111V39.0244C23.1111 37.9512 23.9111 37.0732 24.8889 37.0732C25.8667 37.0732 26.6667 37.9512 26.6667 39.0244V46.8293H30.2222V42.9268C30.2222 41.8537 31.0222 40.9756 32 40.9756C32.9778 40.9756 33.7778 41.8537 33.7778 42.9268V46.8293H78.2222C79.2 46.8293 80 47.7073 80 48.7805ZM3.55556 76.0976H23.1111V50.7317H3.55556V76.0976ZM26.6667 76.0976H46.2222V50.7317H26.6667V76.0976ZM76.4444 50.7317H49.7778V76.0976H76.4444V50.7317ZM33.6444 55.8342C33.6 55.7171 33.5467 55.6098 33.4756 55.5024C33.4133 55.3951 33.3422 55.2976 33.2622 55.2098C33.0128 54.9382 32.6963 54.7527 32.3519 54.6765C32.0075 54.6002 31.6503 54.6363 31.3244 54.7805C31.2089 54.8293 31.1111 54.8976 31.0133 54.9659C30.8165 55.1032 30.6496 55.2864 30.5244 55.5024C30.4622 55.6098 30.4 55.7171 30.3556 55.8342C30.3111 55.9512 30.2756 56.0781 30.2578 56.2049C30.2004 56.5184 30.2142 56.8425 30.2979 57.1487C30.3816 57.455 30.5327 57.7339 30.7378 57.961C30.9067 58.1463 31.1022 58.2927 31.3156 58.3902C31.5378 58.4878 31.76 58.5366 32 58.5366C32.24 58.5366 32.4622 58.4878 32.6844 58.3902C32.8978 58.2927 33.0933 58.1463 33.2622 57.961C33.4673 57.7339 33.6184 57.455 33.7021 57.1487C33.7858 56.8425 33.7996 56.5184 33.7422 56.2049C33.7244 56.0781 33.6889 55.9512 33.6444 55.8342ZM55.1111 58.5366H71.1111C72.0889 58.5366 72.8889 57.6585 72.8889 56.5854C72.8889 55.5122 72.0889 54.6341 71.1111 54.6341H55.1111C54.1333 54.6341 53.3333 55.5122 53.3333 56.5854C53.3333 57.6585 54.1333 58.5366 55.1111 58.5366ZM18.7644 8.13659C18.6667 8.06829 18.5689 8 18.4622 7.95122C18.3556 7.90244 18.24 7.87317 18.1244 7.8439C17.7814 7.77121 17.4265 7.80847 17.1022 7.95122C16.9867 8 16.8889 8.06829 16.7911 8.13659C16.6933 8.20488 16.6044 8.28293 16.5244 8.38049C16.4356 8.46829 16.3644 8.56585 16.3022 8.67317C16.24 8.78049 16.1778 8.8878 16.1333 9.01463C16.0889 9.13171 16.0622 9.24878 16.0356 9.37561C16.0089 9.50244 16 9.62927 16 9.7561C16 9.88293 16.0089 10.0098 16.0356 10.1366C16.0622 10.2634 16.0889 10.3902 16.1333 10.5073C16.1778 10.6244 16.24 10.7317 16.3022 10.839C16.3644 10.9463 16.4356 11.0439 16.5244 11.1415C16.7313 11.3666 16.9855 11.5324 17.2645 11.6242C17.5435 11.7161 17.8388 11.7312 18.1244 11.6683C18.24 11.639 18.3467 11.6098 18.4622 11.561C18.5689 11.5122 18.6667 11.4439 18.7644 11.3756C18.8622 11.3073 18.9511 11.2293 19.04 11.1415C19.12 11.0439 19.1911 10.9463 19.2533 10.839C19.3156 10.7317 19.3778 10.6244 19.4222 10.5073C19.4667 10.3805 19.4933 10.2634 19.52 10.1366C19.5467 10.0098 19.5556 9.88293 19.5556 9.7561C19.5556 9.23902 19.3689 8.74146 19.04 8.38049C18.9511 8.28293 18.8622 8.20488 18.7644 8.13659ZM31.6533 7.8439C31.5378 7.86342 31.4311 7.90244 31.3156 7.95122C31.2089 8 31.1111 8.06829 31.0133 8.13659C30.9156 8.20488 30.8267 8.28293 30.7467 8.37073C30.4089 8.74146 30.2222 9.23902 30.2222 9.7561C30.2222 10.2732 30.4089 10.7707 30.7467 11.1317C30.8267 11.2293 30.9156 11.3073 31.0133 11.3756C31.1111 11.4439 31.2089 11.5122 31.3156 11.561C31.4311 11.6098 31.5378 11.639 31.6533 11.6683C31.7689 11.6976 31.8844 11.7073 32 11.7073C32.4711 11.7073 32.9244 11.5024 33.2533 11.1317C33.5911 10.7707 33.7778 10.2732 33.7778 9.7561C33.7778 9.23902 33.5911 8.74146 33.2533 8.37073C32.8444 7.92195 32.2311 7.71707 31.6533 7.8439ZM80 23.4146V31.2195C80 32.2927 79.2 33.1707 78.2222 33.1707H1.77778C0.8 33.1707 0 32.2927 0 31.2195V1.95122C0 0.878049 0.8 0 1.77778 0H48C48.9778 0 49.7778 0.878049 49.7778 1.95122V20.1756L56.8889 16.039V1.95122C56.8889 0.878049 57.6889 0 58.6667 0H67.5556C68.5333 0 69.3333 0.878049 69.3333 1.95122V16.039L79.0578 21.6878C79.6356 22.0293 80 22.6927 80 23.4146ZM3.55556 29.2683H23.1111V3.90244H3.55556V29.2683ZM26.6667 29.2683H46.2222V3.90244H26.6667V29.2683ZM76.4444 24.5854L66.72 18.9366C66.4353 18.7718 66.1971 18.5247 66.031 18.2221C65.8649 17.9195 65.7774 17.5728 65.7778 17.2195V3.90244H60.4444V17.2195C60.4444 17.9415 60.08 18.6049 59.5022 18.9463L49.7778 24.5854V29.2683H76.4444V24.5854Z" fill="#020826"/>
</g>
<defs>
<clipPath id="clip0_366_173">
<rect width="80" height="80" fill="white"/>
</clipPath>
</defs>
</svg>
